<svg xmlns="http://www.w3.org/2000/svg" xmlns:xlink="http://www.w3.org/1999/xlink" width="1080" zoomAndPan="magnify" viewBox="0 0 810 809.999993" height="1080" preserveAspectRatio="xMidYMid meet" version="1.0"><defs><clipPath id="id1"><path d="M 311 288 L 514.445312 288 L 514.445312 537.320312 L 311 537.320312 Z M 311 288 " clip-rule="nonzero"/></clipPath><clipPath id="id2"><path d="M 295.445312 272.570312 L 504 272.570312 L 504 527 L 295.445312 527 Z M 295.445312 272.570312 " clip-rule="nonzero"/></clipPath></defs><g clip-path="url(#id1)"><path fill="rgb(96.078491%, 46.669006%, 54.508972%)" d="M 513.835938 452.023438 C 513.066406 468.863281 508.523438 483.738281 500.210938 496.644531 C 491.902344 509.558594 480.242188 519.554688 465.226562 526.648438 C 450.214844 533.738281 433.070312 537.28125 413.796875 537.28125 C 381.996094 537.28125 356.960938 526.925781 338.675781 506.203125 C 320.394531 485.488281 311.257812 456.234375 311.257812 418.445312 L 311.257812 406.480469 C 311.257812 382.769531 315.382812 362.019531 323.636719 344.234375 C 331.886719 326.457031 343.773438 312.71875 359.289062 303.019531 C 374.796875 293.328125 392.742188 288.480469 413.128906 288.480469 C 442.488281 288.480469 466.089844 296.207031 483.925781 311.664062 C 501.761719 327.117188 511.902344 348.421875 514.339844 375.566406 L 456.171875 375.566406 C 455.726562 360.832031 452.019531 350.253906 445.039062 343.824219 C 438.058594 337.394531 427.421875 334.183594 413.128906 334.183594 C 398.617188 334.183594 387.976562 339.613281 381.222656 350.46875 C 374.460938 361.332031 370.914062 378.667969 370.585938 402.492188 L 370.585938 419.613281 C 370.585938 445.429688 373.824219 463.875 380.304688 474.957031 C 386.789062 486.039062 397.945312 491.578125 413.796875 491.578125 C 427.199219 491.578125 437.449219 488.425781 444.539062 482.105469 C 451.628906 475.785156 455.394531 465.757812 455.835938 452.023438 L 513.835938 452.023438 " fill-opacity="1" fill-rule="nonzero"/></g><g clip-path="url(#id2)"><path fill="rgb(94.898987%, 34.118652%, 42.349243%)" d="M 298.644531 378.667969 C 298.570312 378.667969 298.492188 378.667969 298.414062 378.65625 C 297.03125 378.535156 296.023438 377.3125 296.144531 375.9375 C 296.273438 374.582031 296.410156 373.238281 296.5625 371.902344 C 296.722656 370.523438 297.964844 369.546875 299.339844 369.695312 C 300.714844 369.855469 301.699219 371.097656 301.539062 372.472656 C 301.390625 373.769531 301.253906 375.074219 301.140625 376.394531 C 301.019531 377.691406 299.925781 378.667969 298.644531 378.667969 Z M 400.433594 526.425781 C 368.035156 526.425781 342.125 515.683594 323.4375 494.5 C 304.824219 473.410156 295.386719 443.320312 295.386719 405.085938 L 295.386719 393.117188 C 295.386719 392.484375 295.394531 391.851562 295.394531 391.222656 C 295.414062 389.847656 296.523438 388.742188 297.898438 388.742188 C 297.90625 388.742188 297.917969 388.742188 297.925781 388.742188 C 299.308594 388.753906 300.417969 389.886719 300.40625 391.269531 C 300.402344 391.886719 300.402344 392.5 300.402344 393.117188 L 300.402344 405.085938 C 300.402344 442.066406 309.410156 471.03125 327.195312 491.179688 C 344.890625 511.242188 369.53125 521.410156 400.433594 521.410156 C 419.246094 521.410156 436.1875 517.914062 450.796875 511.019531 C 465.304688 504.164062 476.734375 494.375 484.746094 481.925781 C 492.339844 470.128906 496.734375 456.425781 497.820312 441.167969 L 444.867188 441.167969 C 444.042969 454.335938 440 464.234375 432.839844 470.613281 C 425.3125 477.316406 414.40625 480.722656 400.433594 480.722656 C 383.710938 480.722656 371.71875 474.707031 364.78125 462.859375 C 358.007812 451.285156 354.71875 432.765625 354.71875 406.25 L 354.71875 389.128906 C 355.058594 364.921875 358.761719 346.988281 365.734375 335.78125 C 372.945312 324.195312 384.398438 318.3125 399.765625 318.3125 C 414.640625 318.3125 425.945312 321.785156 433.375 328.617188 C 440.429688 335.121094 444.410156 345.566406 445.207031 359.699219 L 498.207031 359.699219 C 495.410156 334.625 485.570312 314.617188 468.921875 300.191406 C 451.632812 285.214844 428.367188 277.617188 399.765625 277.617188 C 379.949219 277.617188 362.28125 282.386719 347.25 291.785156 C 332.226562 301.167969 320.550781 314.679688 312.546875 331.933594 C 309.179688 339.183594 306.480469 347.058594 304.519531 355.335938 C 304.199219 356.679688 302.847656 357.515625 301.507812 357.195312 C 300.15625 356.871094 299.320312 355.523438 299.640625 354.179688 C 301.679688 345.574219 304.496094 337.378906 308.003906 329.824219 C 316.421875 311.671875 328.730469 297.449219 344.59375 287.53125 C 360.4375 277.628906 379 272.609375 399.765625 272.609375 C 429.609375 272.609375 453.980469 280.613281 472.207031 296.40625 C 490.460938 312.230469 500.984375 334.292969 503.46875 361.984375 C 503.535156 362.683594 503.296875 363.378906 502.828125 363.898438 C 502.351562 364.414062 501.683594 364.707031 500.976562 364.707031 L 442.808594 364.707031 C 441.453125 364.707031 440.347656 363.632812 440.304688 362.277344 C 439.886719 348.3125 436.414062 338.226562 429.980469 332.304688 C 423.507812 326.347656 413.339844 323.324219 399.765625 323.324219 C 386.050781 323.324219 376.3125 328.269531 369.988281 338.429688 C 363.503906 348.84375 360.050781 365.917969 359.730469 389.164062 L 359.730469 406.25 C 359.730469 431.5 362.878906 449.691406 369.109375 460.328125 C 375.164062 470.675781 385.40625 475.710938 400.433594 475.710938 C 413.140625 475.710938 422.921875 472.734375 429.511719 466.871094 C 436.035156 461.0625 439.558594 451.535156 439.976562 438.578125 C 440.011719 437.226562 441.125 436.152344 442.476562 436.152344 L 500.476562 436.152344 C 501.164062 436.152344 501.816406 436.4375 502.292969 436.929688 C 502.761719 437.417969 503.011719 438.085938 502.980469 438.777344 C 502.183594 455.988281 497.46875 471.414062 488.957031 484.644531 C 480.429688 497.890625 468.304688 508.292969 452.9375 515.550781 C 437.660156 522.769531 419.992188 526.425781 400.433594 526.425781 " fill-opacity="1" fill-rule="nonzero"/></g></svg>